HIERARCHY
ROOT Hips
{
  OFFSET -35.4901 99.2528 17.4586
  CHANNELS 6 Xposition Yposition Zposition Zrotation Xrotation Yrotation
  JOINT LeftUpLeg
  {
    OFFSET 8.64259 1.95398 -2.38835
    CHANNELS 3 Zrotation Xrotation Yrotation
    JOINT LeftLeg
    {
      OFFSET 43.7702 0 0
      CHANNELS 3 Zrotation Xrotation Yrotation
      JOINT LeftFoot
      {
        OFFSET 40.6238 0 0
        CHANNELS 3 Zrotation Xrotation Yrotation
        JOINT LeftToeBase
        {
          OFFSET 12.7242 0 0
          CHANNELS 3 Zrotation Xrotation Yrotation
          End Site
          {
            OFFSET 0 0 0
          }
        }
      }
    }
  }
  JOINT RightUpLeg
  {
    OFFSET -8.2249 1.95398 -2.59336
    CHANNELS 3 Zrotation Xrotation Yrotation
    JOINT RightLeg
    {
      OFFSET 43.5653 0 0
      CHANNELS 3 Zrotation Xrotation Yrotation
      JOINT RightFoot
      {
        OFFSET 40.6238 0 0
        CHANNELS 3 Zrotation Xrotation Yrotation
        JOINT RightToeBase
        {
          OFFSET 12.7242 0 0
          CHANNELS 3 Zrotation Xrotation Yrotation
          End Site
          {
            OFFSET 0 0 0
          }
        }
      }
    }
  }
  JOINT Spine
  {
    OFFSET 0.165834 0.87714 6.61349
    CHANNELS 3 Zrotation Xrotation Yrotation
    JOINT Spine1
    {
      OFFSET 7.38963 1.71661e-005 0
      CHANNELS 3 Zrotation Xrotation Yrotation
      JOINT Spine2
      {
        OFFSET 11.9445 1.14441e-005 0
        CHANNELS 3 Zrotation Xrotation Yrotation
        JOINT Spine3
        {
          OFFSET 14.7254 4.19617e-005 0
          CHANNELS 3 Zrotation Xrotation Yrotation
          JOINT Spine4
          {
            OFFSET 10.9679 0 0
            CHANNELS 3 Zrotation Xrotation Yrotation
            JOINT RightShoulder
            {
              OFFSET 2.46616 -1.6653 3.69651
              CHANNELS 3 Zrotation Xrotation Yrotation
              JOINT RightArm
              {
                OFFSET 13.0012 0 0
                CHANNELS 3 Zrotation Xrotation Yrotation
                JOINT RightForeArm
                {
                  OFFSET 28.7848 1.52588e-005 0
                  CHANNELS 3 Zrotation Xrotation Yrotation
                  JOINT RightHand
                  {
                    OFFSET 26.5688 1.52588e-005 0
                    CHANNELS 3 Zrotation Xrotation Yrotation
                    End Site
                    {
                      OFFSET 0 0 0
                    }
                  }
                }
              }
            }
            JOINT LeftShoulder
            {
              OFFSET 2.38034 -1.29275 -3.7523
              CHANNELS 3 Zrotation Xrotation Yrotation
              JOINT LeftArm
              {
                OFFSET 16.3182 6.10351e-005 0
                CHANNELS 3 Zrotation Xrotation Yrotation
                JOINT LeftForeArm
                {
                  OFFSET 27.0901 0 0
                  CHANNELS 3 Zrotation Xrotation Yrotation
                  JOINT LeftHand
                  {
                    OFFSET 24.5451 1.52588e-005 0
                    CHANNELS 3 Zrotation Xrotation Yrotation
                    End Site
                    {
                      OFFSET 0 0 0
                    }
                  }
                }
              }
            }
            JOINT Neck
            {
              OFFSET 5.0226 -0.0266342 0
              CHANNELS 3 Zrotation Xrotation Yrotation
              JOINT Head
              {
                OFFSET 6.69364 2.86102e-005 0
                CHANNELS 3 Zrotation Xrotation Yrotation
                End Site
                {
                  OFFSET 0 0 0
                }
              }
            }
          }
        }
      }
    }
  }
}
MOTION
Frames:	18
Frame Time:	0.0416667
27.343 97.8177 21.1974 -101.238 -47.9963 -103.525 -178.661 2.01539 83.8946 -23.2599 -1.5404 -1.90297 75.9377 3.81445 -2.67235 9.22916 -4.05356 6.20527 156.425 9.15459 69.2852 -19.2125 -1.79446 1.50607 61.2513 -2.48928 3.0061 33.7035 0.585991 -2.6344 1.33733 7.70986 -89.7409 11.4541 2.78189 0.233682 -0.213889 2.78947 0.110906 -22.7702 2.58298 1.0595 -2.75759 2.58297 1.05949 88.404 -30.8761 -109.537 42.2261 -4.57337 -2.89488 2.6705 -26.2634 -13.9047 -30.9878 -0.777342 -4.36295 -81.5031 -56.4016 91.945 -23.4448 1.78767 -2.72274 5.44873 4.33619 -4.0513 -0.21099 -0.0958563 -4.6524 -1.65417 24.9283 5.2636 -0.539066 24.1182 8.28101 
27.4775 97.8303 21.2047 -101.642 -49.2685 -104.296 -178.461 1.94903 83.7864 -23.0236 0.100579 -2.25283 75.817 4.21827 -2.30596 10.9475 -3.95381 6.13143 155.933 9.13656 68.7047 -19.3226 -0.993667 1.65217 61.1552 -2.43668 3.33937 34.2367 0.625715 -2.88983 1.37758 7.72804 -89.6769 11.4161 2.89189 0.351412 -0.251666 2.90456 0.223693 -22.809 2.65248 1.20488 -2.7964 2.65249 1.20489 88.3227 -31.0858 -109.607 42.2548 -5.30096 -2.9453 1.38197 -26.7092 -14.8467 -28.3255 -0.598087 -5.11796 -81.5667 -56.6104 91.8682 -22.3204 2.19075 -3.9991 5.14634 2.31531 -4.86844 -0.060756 -0.0992228 -4.79211 -2.23225 24.1662 4.90947 -0.637027 23.4365 7.8645 
27.7591 97.93 21.0644 -102.165 -49.7179 -104.641 -178.497 1.90571 83.7889 -22.9703 0.571668 -2.15674 75.4119 4.28408 -2.00719 10.8315 -3.63237 5.7497 156.122 8.44847 68.7691 -18.6752 -0.305961 1.57378 60.7699 -2.32466 3.14756 34.2491 0.615064 -2.85933 1.38171 7.77169 -89.692 11.3292 2.89317 0.324193 -0.338504 2.90462 0.196433 -22.8961 2.66187 1.17931 -2.88343 2.66188 1.17932 88.4821 -30.9947 -109.336 42.3191 -5.50145 -3.65595 1.6285 -28.2638 -14.973 -29.4376 -0.797418 -4.4529 -81.8017 -56.558 91.5343 -22.1454 2.69474 -6.46967 5.66002 4.6541 -7.13513 0.106338 -0.112392 -5.38144 -2.3158 23.8544 4.61816 -0.463865 23.177 8.04581 
27.9912 97.9226 20.954 -102.511 -49.2174 -104.856 -178.313 1.77008 83.8281 -23.3749 0.361915 -2.43094 76.0238 4.40272 -3.3853 9.50458 -6.881 9.55358 156.498 8.42398 68.7927 -18.8848 -0.468471 1.37711 60.9716 -2.36905 3.42837 33.6593 0.926679 -3.67214 1.30112 7.84701 -89.7035 11.1784 2.72744 0.323158 -0.48973 2.73904 0.202706 -23.0447 2.50416 1.12842 -3.03204 2.50417 1.12841 88.3185 -30.8789 -109.702 41.9873 -5.57343 -4.4173 0.908906 -28.3192 -16.1737 -29.8282 -0.942646 -3.83869 -81.6733 -56.4799 91.7101 -21.9714 3.79235 -9.72126 6.18071 7.58419 -8.80369 -0.467859 -0.11225 -5.67994 -1.91283 23.4456 4.86763 -0.201392 22.7221 7.45621 
28.2224 97.8548 20.8371 -101.698 -47.2267 -104.1 -178.571 2.06625 83.5289 -23.3578 -2.60553 -2.41323 75.622 3.8544 -3.08612 11.0492 -4.1293 6.34815 157.11 9.89223 69.036 -19.9884 -2.27426 1.19344 61.27 -2.37055 3.34957 32.8426 0.982647 -3.62246 1.32351 7.86566 -89.7397 11.1421 2.7552 0.24961 -0.525966 2.76353 0.128012 -23.0818 2.55272 1.06664 -3.06915 2.55274 1.06665 89.0472 -30.3859 -108.485 42.259 -5.8166 -4.76094 -0.315707 -28.0592 -17.73 -29.5543 -0.532361 -5.59392 -81.9213 -56.828 91.3844 -21.4336 5.2732 -12.5884 5.94411 8.34663 -9.51959 -0.682236 -0.122606 -6.54429 -0.657204 20.2756 5.53307 0.257786 19.4013 5.21414 
28.0575 97.9324 20.6147 -101.256 -44.3317 -102.77 -178.151 1.48337 84.3793 -23.0585 -4.41443 -2.699 76.1908 3.94158 -3.62643 11.1666 -6.5891 9.34235 158.302 9.87211 70.2834 -19.8294 -3.8729 0.924766 61.0152 -2.20557 3.13391 32.3099 0.985434 -3.49008 1.24719 7.95382 -89.756 10.9657 2.59596 0.238595 -0.702665 2.60394 0.124023 -23.2561 2.40417 1.00819 -3.2435 2.40417 1.00819 88.0176 -31.2697 -110.119 40.707 -5.59977 -5.18017 -0.480613 -27.0145 -18.0259 -28.6117 -0.406726 -6.03108 -82.5601 -56.9656 90.4996 -22.2568 2.44268 -14.3592 7.98057 11.406 -9.91496 -0.516173 -0.126342 -6.6387 -0.110672 12.8861 5.33373 3.77378 12.09 2.53932 
27.4164 98.2087 20.2629 -100.497 -40.8049 -100.724 -177.998 0.782322 85.5899 -22.2812 -7.92791 -2.33444 75.8305 3.49754 -3.93753 11.9437 -6.09082 8.77835 159.649 9.11388 72.2814 -18.2677 -5.63765 0.827431 59.9652 -1.71248 2.86669 31.8691 0.780022 -2.74945 1.09688 7.95437 -89.7786 10.9645 2.28624 0.223008 -0.70446 2.29384 0.122108 -23.2538 2.11348 0.900101 -3.24113 2.11347 0.900097 87.724 -31.8778 -110.424 40.2872 -5.70653 -5.40691 1.08117 -27.3739 -16.6562 -30.3304 -0.433937 -5.91699 -82.7336 -55.4452 90.1338 -22.1151 4.4936 -13.1778 6.82558 9.4602 -10.4991 0.835309 -0.140893 -6.07455 0.473371 2.3065 3.74697 5.07943 1.65611 -1.13763 
26.5406 98.5416 19.621 -99.2447 -36.6726 -98.1877 -177.823 -0.0103697 87.0417 -20.2928 -11.1534 -1.97859 75.3429 3.48127 -2.67045 13.1308 -5.63746 8.29416 160.451 9.61538 75.3014 -18.6851 -1.81696 1.80991 60.1038 -1.73403 0.3884 28.7692 -0.477227 1.23514 0.921157 7.93044 -89.823 11.0127 1.91581 0.168835 -0.65689 1.9214 0.0843153 -23.202 1.77649 0.736994 -3.18936 1.77648 0.736979 87.3121 -32.4356 -110.967 39.7099 -5.25786 -4.88385 1.27878 -27.5284 -16.6633 -30.6002 -0.633884 -5.08425 -83.0118 -54.9604 89.6962 -22.8763 3.73501 -11.7313 7.34229 11.5582 -9.76015 -1.32725 -0.111917 -7.24126 -0.0372599 -8.99712 1.75152 4.91207 -9.47716 -6.37847 
25.1981 99.0156 18.6873 -97.7285 -31.9039 -94.8878 -177.468 -0.3778 89.4487 -19.5323 -17.5501 -1.22334 75.0746 2.83662 -6.19017 13.4075 -6.51378 9.45909 160.061 9.12374 79.9062 -19.4379 13.5985 4.93958 61.6761 -2.45637 0.50652 24.6455 -0.572712 1.94577 0.798886 7.89755 -89.9673 11.0803 1.60537 -0.0900969 -0.589646 1.59987 -0.160692 -23.1325 1.55823 0.39667 -3.11981 1.5582 0.396658 87.9159 -32.3103 -109.878 39.7268 -5.46073 -4.52506 1.52759 -26.8607 -15.5025 -30.1071 -0.392704 -6.03022 -83.0138 -54.5974 89.6617 -23.1281 5.57979 -11.0229 5.62897 9.32829 -7.6969 -1.78696 -0.10302 -6.81233 -0.674877 -19.3633 -1.73835 2.7208 -19.2656 -10.4001 
23.2516 99.4119 17.7328 -97.5247 -25.7484 -93.3255 -177.03 -3.58558 91.0633 -15.8374 -23.1494 -0.88847 73.5414 3.09982 -5.56822 15.5328 -5.81008 8.72565 162.349 6.46748 82.8082 -17.2619 18.0772 6.02782 63.1307 -2.77014 0.950639 20.7478 0.79123 -0.755852 0.721159 7.93044 -90.0012 11.0145 1.43513 -0.139677 -0.655645 1.42758 -0.202722 -23.197 1.41076 0.298185 -3.18435 1.41074 0.29818 87.653 -32.5864 -110.261 39.6377 -4.59719 -3.74517 1.5776 -27.4879 -14.8043 -28.376 -0.231682 -6.88778 -83.418 -53.5757 88.9843 -23.8275 6.51961 -9.72449 4.83582 9.1819 -6.48689 -1.47087 -0.109958 -6.86661 -3.5421 -26.0783 -5.66671 2.40402 -25.6705 -13.9187 
20.7346 99.4305 16.7083 -97.2835 -17.8882 -91.8035 -176.252 -7.24049 92.1367 -13.1943 -30.6362 -1.16547 72.8398 3.68371 -6.814 19.2993 -7.61806 11.5457 165.751 4.94628 85.6258 -15.5923 12.9058 4.21649 63.8542 -2.60734 0.272709 21.1038 0.21312 0.486154 0.639608 7.91437 -90.0544 11.0473 1.248 -0.228689 -0.623125 1.23671 -0.283407 -23.1631 1.25903 0.157016 -3.15046 1.25902 0.157012 87.6983 -32.575 -110.179 38.9991 -5.45142 -3.65752 1.94822 -29.441 -14.8423 -28.0526 -0.364766 -6.5563 -83.886 -52.835 88.2281 -25.1166 5.88427 -7.71132 5.05241 8.55415 -6.64004 -1.49151 -0.106254 -6.38798 -4.33655 -28.2881 -7.48407 2.49905 -27.7642 -14.5283 
17.8751 99.245 15.2721 -97.7458 -9.93084 -90.4331 -174.208 -10.9887 94.1299 -12.835 -37.0834 -2.56294 73.7426 5.9352 -8.17939 19.7709 -9.31479 14.0473 168.534 3.25221 88.6643 -15.7417 7.8666 2.85463 65.8573 -2.39601 -0.481782 20.393 -0.209754 1.49789 0.440782 7.89584 -90.1558 11.0834 0.805526 -0.38779 -0.587374 0.787664 -0.42287 -23.1244 0.884817 -0.127756 -3.11173 0.884819 -0.127756 88.0524 -32.3963 -109.584 39.3914 -5.6787 -3.46897 0.439352 -30.4715 -16.1816 -27.0107 -0.409739 -6.54228 -83.9469 -52.6536 88.1197 -25.2884 6.87829 -7.28381 3.53874 3.09917 -4.94958 -2.3617 -0.0911064 -8.03263 -4.26345 -27.522 -7.7619 3.18124 -27.015 -13.8614 
15.108 98.6483 13.3936 -98.0674 -1.8373 -88.0134 -169.726 -11.0767 97.7394 -19.1914 -40.954 -5.71074 73.3362 8.26091 -5.65896 26.7883 -7.75822 12.8498 170.587 2.53827 91.496 -17.8788 2.5032 2.02009 68.6791 -2.57725 0.0638199 19.4512 -0.286156 1.74703 0.32501 7.8739 -90.3365 11.1272 0.490657 -0.717487 -0.543877 0.458659 -0.738395 -23.0788 0.683625 -0.536858 -3.06614 0.68361 -0.536855 88.649 -30.9985 -109.012 40.1321 -6.28015 -3.43013 0.689991 -28.0857 -16.8554 -28.6969 -0.318193 -6.56292 -83.964 -53.6117 88.1956 -23.0562 7.73504 -9.68308 3.69918 7.8516 -5.06799 -1.44204 -0.106367 -6.32078 -3.1626 -26.8076 -6.00605 3.10272 -26.3894 -13.78 
13.0518 97.6475 11.082 -99.1595 5.59058 -84.1769 -163.686 -4.77956 104.79 -32.2466 -36.1477 -6.60393 83.4694 9.86209 -20.9105 70.4398 -25.1129 95.1556 171.6 1.2991 94.4276 -20.1327 -3.50397 2.23456 72.287 -3.71311 -0.167452 17.7743 -1.35348 4.0975 0.259013 7.92052 -90.4707 11.0331 0.297448 -0.965217 -0.638225 0.25469 -0.977383 -23.1714 0.573782 -0.831212 -3.15871 0.573781 -0.831218 88.7712 -31.4382 -108.598 39.375 -7.35987 -4.01019 0.802366 -27.0103 -16.7052 -27.0519 -0.340558 -6.38806 -84.2941 -52.3901 87.5813 -23.6621 5.4387 -11.7525 5.73588 9.87437 -7.36669 0.357369 -0.142886 -6.55307 -3.22915 -26.2211 -6.68192 3.12805 -25.7327 -13.408 
11.6 97.4431 9.31964 -100.124 13.9221 -82.6205 -161.516 4.94014 107.449 -51.7249 -17.7672 -3.65426 72.4679 7.80364 0.227672 19.0725 6.21247 -2.13123 172.418 -0.797599 96.091 -19.4334 -10.215 2.35325 71.5016 -3.95087 0.32705 18.9811 -1.78347 4.96941 0.154144 7.97072 -90.5813 10.9315 0.0379111 -1.16001 -0.740001 -0.0131584 -1.16056 -23.2714 0.384789 -1.095 -3.25873 0.384784 -1.095 88.7817 -31.6596 -108.489 39.1132 -6.09719 -4.76338 1.27975 -28.7217 -15.5305 -26.2487 -0.43914 -6.17261 -84.3452 -52.1889 87.4831 -23.1383 4.61333 -14.3138 6.70262 8.79343 -10.016 0.378785 -0.162816 -7.33509 -4.12651 -25.6042 -6.89762 4.00913 -25.2284 -12.7904 
10.7482 96.7218 8.56621 -101.075 21.3767 -80.6933 -165.081 8.33965 107.028 -54.9931 5.96584 1.77444 75.2428 8.45322 -0.38093 19.8033 -0.931073 2.10481 173.41 0.585567 97.2965 -23.6883 -16.6247 1.51131 73.1167 -5.14956 -1.11625 18.6495 -2.03999 5.51012 0.123858 8.01907 -90.6141 10.8339 -0.0370101 -1.2179 -0.837604 -0.0905576 -1.21511 -23.3684 0.330705 -1.17273 -3.35577 0.33072 -1.17274 88.4851 -31.8707 -108.973 38.6341 -5.53521 -4.30809 2.0823 -30.4047 -14.8799 -27.6173 -0.385581 -6.60362 -84.4114 -51.9323 87.356 -23.5526 4.06225 -16.8673 7.46488 7.62393 -12.8629 1.93654 -0.145367 -5.85746 -4.86692 -24.8645 -7.22836 4.55268 -24.5457 -12.1235 
10.1057 96.5187 8.60347 -101.919 31.081 -79.0972 -168.074 9.20396 106.266 -48.7643 4.11707 2.91807 76.7387 8.95797 -3.74992 24.7063 -4.58101 7.53713 173.854 1.7768 96.957 -25.7016 -26.6246 0.637932 72.3073 -6.39604 -2.67993 19.3693 -2.1743 5.79758 0.254905 7.99592 -90.6509 10.8815 0.206639 -1.3141 -0.790138 0.148631 -1.32193 -23.3209 0.592012 -1.19126 -3.30821 0.592008 -1.19127 88.5204 -31.4324 -109.083 38.5428 -6.46274 -4.44224 2.12892 -29.0565 -14.2345 -28.2084 -0.362543 -6.51 -84.3592 -53.1009 87.5656 -22.4437 4.13252 -17.8299 9.36991 11.5922 -16.055 1.41272 -0.197228 -7.59812 -5.05717 -23.2031 -5.27545 4.59758 -23.0819 -11.5517 
9.61492 96.3962 8.8584 -103.164 40.2719 -76.7755 -170.6 10.3267 106.936 -40.6967 4.2371 3.98987 78.34 9.64951 -6.44329 26.3866 -5.09438 8.48577 174.567 2.61231 97.0661 -26.739 -34.4917 -0.221712 71.0613 -7.22038 -2.73096 19.9579 -2.15542 5.75953 0.23897 8.05803 -90.6677 10.7568 0.168023 -1.34315 -0.914805 0.108743 -1.34923 -23.4452 0.563886 -1.23058 -3.43253 0.563878 -1.23059 88.4161 -31.7747 -109.145 38.2092 -6.9752 -5.0264 1.22142 -30.3921 -15.8348 -29.9643 -0.60783 -5.54762 -84.1985 -52.533 87.7372 -22.8832 4.79295 -17.1537 9.37077 10.9611 -17.2628 0.363787 -0.164506 -7.68452 -4.08791 -20.8313 -4.19868 4.80034 -20.7298 -10.1617 
